<?xml version="1.0" encoding="UTF-8" standalone="no"?>
<svg
   xmlns:osb="http://www.openswatchbook.org/uri/2009/osb"
   xmlns:dc="http://purl.org/dc/elements/1.1/"
   xmlns:cc="http://creativecommons.org/ns#"
   xmlns:rdf="http://www.w3.org/1999/02/22-rdf-syntax-ns#"
   xmlns:svg="http://www.w3.org/2000/svg"
   xmlns="http://www.w3.org/2000/svg"
   xmlns:xlink="http://www.w3.org/1999/xlink"
   xmlns:sodipodi="http://sodipodi.sourceforge.net/DTD/sodipodi-0.dtd"
   xmlns:inkscape="http://www.inkscape.org/namespaces/inkscape"
   width="297mm"
   height="210mm"
   viewBox="0 0 297 210"
   version="1.1"
   id="svg8"
   inkscape:version="1.0.2-2 (e86c870879, 2021-01-15)"
   sodipodi:docname="cycle.svg"
   inkscape:export-filename="C:\Users\smohekey\Documents\GitHub\Gladius_1.0.0-beta\src\server\probe-cycles\surface\thumbnail.png"
   inkscape:export-xdpi="20.700001"
   inkscape:export-ydpi="20.700001">
  <defs
     id="defs2">
    <linearGradient
       id="linearGradient1032"
       osb:paint="solid">
      <stop
         style="stop-color:#646464;stop-opacity:1;"
         offset="0"
         id="stop1030" />
    </linearGradient>
    <linearGradient
       inkscape:collect="always"
       id="linearGradient1024">
      <stop
         style="stop-color:#646464;stop-opacity:1"
         offset="0"
         id="stop1020" />
      <stop
         style="stop-color:#b4b4b4;stop-opacity:1"
         offset="1"
         id="stop1022" />
    </linearGradient>
    <linearGradient
       inkscape:collect="always"
       id="linearGradient1016">
      <stop
         style="stop-color:#e4e4e4;stop-opacity:1"
         offset="0"
         id="stop1012" />
      <stop
         style="stop-color:#f0f0f0;stop-opacity:1"
         offset="1"
         id="stop1014" />
    </linearGradient>
    <linearGradient
       id="linearGradient956"
       osb:paint="solid">
      <stop
         style="stop-color:#969696;stop-opacity:1;"
         offset="0"
         id="stop954" />
    </linearGradient>
    <linearGradient
       id="linearGradient952"
       osb:paint="gradient">
      <stop
         style="stop-color:#808080;stop-opacity:1;"
         offset="0"
         id="stop948" />
      <stop
         style="stop-color:#808080;stop-opacity:0"
         offset="1"
         id="stop950" />
    </linearGradient>
    <linearGradient
       id="linearGradient940"
       osb:paint="gradient">
      <stop
         style="stop-color:#808080;stop-opacity:1;"
         offset="0"
         id="stop936" />
      <stop
         style="stop-color:#808080;stop-opacity:0.5"
         offset="1"
         id="stop938" />
    </linearGradient>
    <linearGradient
       id="linearGradient857">
      <stop
         style="stop-color:#808080;stop-opacity:1;"
         offset="0"
         id="stop925" />
    </linearGradient>
    <linearGradient
       id="linearGradient901"
       osb:paint="solid">
      <stop
         style="stop-color:#a5a5a5;stop-opacity:1;"
         offset="0"
         id="stop899" />
    </linearGradient>
    <linearGradient
       id="linearGradient893"
       osb:paint="solid">
      <stop
         style="stop-color:#a5a5a5;stop-opacity:1;"
         offset="0"
         id="stop891" />
    </linearGradient>
    <linearGradient
       id="linearGradient887"
       osb:paint="solid">
      <stop
         style="stop-color:#000000;stop-opacity:1;"
         offset="0"
         id="stop885" />
    </linearGradient>
    <linearGradient
       id="linearGradient881"
       osb:paint="solid">
      <stop
         style="stop-color:#a5a5a5;stop-opacity:1;"
         offset="0"
         id="stop879" />
    </linearGradient>
    <linearGradient
       id="Top"
       osb:paint="solid">
      <stop
         style="stop-color:#a5a5a5;stop-opacity:1;"
         offset="0"
         id="stop873" />
    </linearGradient>
    <linearGradient
       id="Left"
       osb:paint="solid">
      <stop
         style="stop-color:#646464;stop-opacity:1;"
         offset="0"
         id="stop867" />
    </linearGradient>
    <linearGradient
       id="linearGradient857-6">
      <stop
         style="stop-color:#808080;stop-opacity:1;"
         offset="0"
         id="stop855" />
    </linearGradient>
    <linearGradient
       id="Right"
       osb:paint="solid">
      <stop
         style="stop-color:#808080;stop-opacity:1;"
         offset="0"
         id="stop849" />
    </linearGradient>
    <linearGradient
       id="linearGradient841"
       osb:paint="solid">
      <stop
         style="stop-color:#ffffff;stop-opacity:1;"
         offset="0"
         id="stop839" />
    </linearGradient>
    <linearGradient
       inkscape:collect="always"
       xlink:href="#Right"
       id="linearGradient853"
       x1="142.89419"
       y1="168.75"
       x2="233.82686"
       y2="168.75"
       gradientUnits="userSpaceOnUse"
       gradientTransform="matrix(0.95238093,0,0,0.96296296,12.410299,10.000001)" />
    <linearGradient
       inkscape:collect="always"
       xlink:href="#Left"
       id="linearGradient871"
       x1="51.961523"
       y1="168.75"
       x2="142.89419"
       y2="168.75"
       gradientUnits="userSpaceOnUse"
       gradientTransform="matrix(0.95238096,0,0,0.96296297,12.410295,9.9999983)" />
    <linearGradient
       inkscape:collect="always"
       xlink:href="#Top"
       id="linearGradient946"
       gradientUnits="userSpaceOnUse"
       x1="51.961525"
       y1="135"
       x2="233.82686"
       y2="135"
       gradientTransform="matrix(0.95238094,0,0,0.95238093,12.410296,11.428575)" />
    <linearGradient
       inkscape:collect="always"
       xlink:href="#linearGradient1016"
       id="linearGradient1018"
       x1="526.97986"
       y1="168.18898"
       x2="553.16522"
       y2="168.18898"
       gradientUnits="userSpaceOnUse"
       gradientTransform="matrix(0.26458333,0,0,0.26458333,5.60581,2.5)" />
    <linearGradient
       inkscape:collect="always"
       xlink:href="#linearGradient1024"
       id="linearGradient1026"
       x1="441.87753"
       y1="9.4488192"
       x2="638.26758"
       y2="9.4488192"
       gradientUnits="userSpaceOnUse"
       gradientTransform="matrix(0.26458333,0,0,0.26458333,5.60581,2.5)" />
  </defs>
  <sodipodi:namedview
     id="base"
     pagecolor="#ffffff"
     bordercolor="#666666"
     borderopacity="1.0"
     inkscape:pageopacity="0.0"
     inkscape:pageshadow="2"
     inkscape:zoom="1.5459226"
     inkscape:cx="561.25984"
     inkscape:cy="396.85039"
     inkscape:document-units="mm"
     inkscape:current-layer="layer1"
     inkscape:document-rotation="0"
     showgrid="true"
     inkscape:window-width="2446"
     inkscape:window-height="1417"
     inkscape:window-x="376"
     inkscape:window-y="-8"
     inkscape:window-maximized="1">
    <inkscape:grid
       type="axonomgrid"
       id="grid835"
       originx="148.5"
       originy="105" />
  </sodipodi:namedview>
  <metadata
     id="metadata5">
    <rdf:RDF>
      <cc:Work
         rdf:about="">
        <dc:format>image/svg+xml</dc:format>
        <dc:type
           rdf:resource="http://purl.org/dc/dcmitype/StillImage" />
        <dc:title />
      </cc:Work>
    </rdf:RDF>
  </metadata>
  <g
     inkscape:label="Layer 1"
     inkscape:groupmode="layer"
     id="layer1">
    <circle
       style="fill:#ff0000;fill-opacity:1;stroke:#000000;stroke-width:1;stroke-linecap:round;stroke-linejoin:round;stroke-miterlimit:4;stroke-dasharray:none;stroke-opacity:1;paint-order:markers stroke fill"
       id="path1028"
       cx="148.49486"
       cy="76.442245"
       r="4.7631397" />
    <path
       style="fill:url(#linearGradient853);fill-opacity:1;stroke:#000000;stroke-width:0.5;stroke-linecap:butt;stroke-linejoin:round;stroke-miterlimit:4;stroke-dasharray:none;stroke-opacity:1"
       d="m 148.5,205 86.60254,-50.55556 V 140 L 148.5,190 Z"
       id="path837"
       sodipodi:nodetypes="ccccc" />
    <path
       style="fill:url(#linearGradient871);fill-opacity:1;stroke:#000000;stroke-width:0.5;stroke-linecap:butt;stroke-linejoin:round;stroke-miterlimit:4;stroke-dasharray:none;stroke-opacity:1"
       d="M 148.5,205 V 190 L 61.89746,140 v 14.44445 z"
       id="path847"
       sodipodi:nodetypes="ccccc" />
    <path
       style="fill:url(#linearGradient946);fill-opacity:1;stroke:#000000;stroke-width:0.5;stroke-linecap:butt;stroke-linejoin:round;stroke-miterlimit:4;stroke-dasharray:none;stroke-opacity:1"
       d="M 61.89746,140 148.5,190 235.10254,140 148.5,90 Z"
       id="path861" />
    <path
       id="path996"
       style="fill:url(#linearGradient1018);fill-opacity:1;stroke:#000000;stroke-width:0.5;stroke-linecap:butt;stroke-linejoin:miter;stroke-miterlimit:4;stroke-dasharray:none;stroke-opacity:1"
       d="m 145.90192,75.499999 c -0.90476,-0.522365 -1.17937,-1.044726 -1.15299,-1.503741 V 17.165684 l 7.50214,-3e-6 v 56.830585 c 0.0264,0.459012 -0.24824,0.981374 -1.15299,1.503733 m 0,0 c -2.59808,1.499999 -5.19616,0 -5.19616,0 v 0"
       sodipodi:nodetypes="ccccccccc" />
    <path
       id="path1003"
       style="fill:url(#linearGradient1026);fill-opacity:1;stroke:#000000;stroke-width:0.5;stroke-linecap:butt;stroke-linejoin:miter;stroke-miterlimit:4;stroke-dasharray:none;stroke-opacity:1"
       d="M 123.49202,-0.43836272 V 14.989931 c -0.16904,3.056507 1.66551,6.533288 7.68746,10.010068 0,0 17.32052,10.000002 34.64102,0 6.02197,-3.476784 7.85653,-6.953569 7.68747,-10.010079 V -0.56164267 Z"
       sodipodi:nodetypes="cccsccc" />
    <path
       style="fill:none;stroke:#000000;stroke-width:0.50000001;stroke-linecap:butt;stroke-linejoin:miter;stroke-miterlimit:4;stroke-dasharray:0.50000001,0.50000001;stroke-dashoffset:0;stroke-opacity:1"
       d="m 148.5,130 v 10"
       id="path887" />
    <path
       style="color:#000000;font-style:normal;font-variant:normal;font-weight:normal;font-stretch:normal;font-size:medium;line-height:normal;font-family:sans-serif;font-variant-ligatures:normal;font-variant-position:normal;font-variant-caps:normal;font-variant-numeric:normal;font-variant-alternates:normal;font-variant-east-asian:normal;font-feature-settings:normal;font-variation-settings:normal;text-indent:0;text-align:start;text-decoration:none;text-decoration-line:none;text-decoration-style:solid;text-decoration-color:#000000;letter-spacing:normal;word-spacing:normal;text-transform:none;writing-mode:lr-tb;direction:ltr;text-orientation:mixed;dominant-baseline:auto;baseline-shift:baseline;text-anchor:start;white-space:normal;shape-padding:0;shape-margin:0;inline-size:0;clip-rule:nonzero;display:inline;overflow:visible;visibility:visible;opacity:1;isolation:auto;mix-blend-mode:normal;color-interpolation:sRGB;color-interpolation-filters:linearRGB;solid-color:#000000;solid-opacity:1;vector-effect:none;fill:#ff0000;fill-opacity:1;fill-rule:nonzero;stroke:#000000;stroke-width:0.5;stroke-linecap:round;stroke-linejoin:round;stroke-miterlimit:4;stroke-dasharray:none;stroke-dashoffset:0;stroke-opacity:1;color-rendering:auto;image-rendering:auto;shape-rendering:auto;text-rendering:auto;enable-background:accumulate;stop-color:#000000;stop-opacity:1"
       d="m 148.5,119 a 1,1 0 0 0 -1,1 v 6.26953 L 145.03516,122 A 1,1 0 0 0 143.66992,121.63477 1,1 0 0 0 143.30469,123 l 4.3164,7.47656 a 1,1 0 0 0 0.004,0.008 l 0.01,0.0156 a 1,1 0 0 0 0.0449,0.0703 1,1 0 0 0 0.0391,0.0547 1.0001,1.0001 0 0 0 0.0352,0.041 1,1 0 0 0 0.0293,0.0312 1.0001,1.0001 0 0 0 0.0176,0.0176 1,1 0 0 0 0.043,0.0391 1.0001,1.0001 0 0 0 0.0254,0.0215 1,1 0 0 0 0.0352,0.0273 1.0001,1.0001 0 0 0 0.0312,0.0215 1,1 0 0 0 0.0312,0.0215 1.0001,1.0001 0 0 0 0.0176,0.01 1,1 0 0 0 0.0664,0.0371 1.0001,1.0001 0 0 0 0.0215,0.0117 1,1 0 0 0 0.0625,0.0254 1,1 0 0 0 0.0664,0.0254 1.0001,1.0001 0 0 0 0.0645,0.0156 1,1 0 0 0 0.0176,0.006 1.0001,1.0001 0 0 0 0.0312,0.006 1,1 0 0 0 0.0625,0.01 1,1 0 0 0 0.0664,0.006 1.0001,1.0001 0 0 0 0.041,0.002 1,1 0 0 0 0.0156,0 1.0001,1.0001 0 0 0 0.0371,-0.002 1,1 0 0 0 0.01,0 1.0001,1.0001 0 0 0 0.0371,-0.002 1,1 0 0 0 0.0156,-0.002 1.0001,1.0001 0 0 0 0.0488,-0.006 1,1 0 0 0 0.0644,-0.0117 1,1 0 0 0 0.0723,-0.0195 1,1 0 0 0 0.0273,-0.008 1.0001,1.0001 0 0 0 0.0176,-0.006 1,1 0 0 0 0.0117,-0.004 1.0001,1.0001 0 0 0 0.0566,-0.0234 1.0001,1.0001 0 0 0 0.01,-0.004 1,1 0 0 0 0.041,-0.0195 1.0001,1.0001 0 0 0 0.008,-0.004 1,1 0 0 0 0.0586,-0.0332 1,1 0 0 0 0.008,-0.004 1.0001,1.0001 0 0 0 0.008,-0.006 1,1 0 0 0 0.0625,-0.041 1.0001,1.0001 0 0 0 0.0293,-0.0234 1,1 0 0 0 0.0351,-0.0293 1.0001,1.0001 0 0 0 0.006,-0.006 1,1 0 0 0 0.0449,-0.041 1,1 0 0 0 0.01,-0.01 1.0001,1.0001 0 0 0 0.0488,-0.0547 1,1 0 0 0 0.008,-0.01 1.0001,1.0001 0 0 0 0.0234,-0.0293 1,1 0 0 0 0.01,-0.0137 1.0001,1.0001 0 0 0 0.0312,-0.0469 1.0001,1.0001 0 0 0 0.006,-0.008 1,1 0 0 0 0.043,-0.0742 L 153.69531,123 A 1,1 0 0 0 153.33008,121.63477 1,1 0 0 0 151.96484,122 L 149.5,126.26953 V 120 a 1,1 0 0 0 -1,-1 z"
       id="path880" />
  </g>
</svg>
